<?xml version="1.0" encoding="iso-8859-1"?>
<!-- Uploaded to: SVG Repo, www.svgrepo.com, Generator: SVG Repo Mixer Tools -->
<svg height="800px" width="800px" version="1.1" id="Layer_1" xmlns="http://www.w3.org/2000/svg" xmlns:xlink="http://www.w3.org/1999/xlink" 
	 viewBox="0 0 503.322 503.322" xml:space="preserve">
<path style="fill:#546080;" d="M295.051,34.712V17.356C295.051,7.81,287.241,0,277.695,0h-52.068
	c-9.546,0-17.356,7.81-17.356,17.356v17.356h-34.712c-5.207,0-8.678,3.471-8.678,8.678v60.746c0,5.207,3.471,8.678,8.678,8.678
	h156.203c5.207,0,8.678-3.471,8.678-8.678V43.39c0-5.207-3.471-8.678-8.678-8.678H295.051z"/>
<path style="fill:#EFEADD;" d="M338.441,60.746v43.39c0,5.207-3.471,8.678-8.678,8.678H173.559c-5.207,0-8.678-4.339-8.678-8.678
	v-43.39h-52.068c-19.092,0-34.712,15.62-34.712,34.712V468.61c0,19.092,15.62,34.712,34.712,34.712h277.695
	c19.092,0,34.712-15.62,34.712-34.712V95.458c0-19.092-15.62-34.712-34.712-34.712H338.441z"/>
<g>
	<path style="fill:#D4D0BA;" d="M173.559,182.237c0-9.546-7.81-17.356-17.356-17.356c-9.546,0-17.356,7.81-17.356,17.356
		s7.81,17.356,17.356,17.356C165.749,199.593,173.559,191.783,173.559,182.237"/>
	<path style="fill:#D4D0BA;" d="M347.119,190.915H199.593c-5.207,0-8.678-3.471-8.678-8.678s3.471-8.678,8.678-8.678h147.525
		c5.207,0,8.678,3.471,8.678,8.678S352.325,190.915,347.119,190.915"/>
	<path style="fill:#D4D0BA;" d="M173.559,260.339c0-9.546-7.81-17.356-17.356-17.356c-9.546,0-17.356,7.81-17.356,17.356
		c0,9.546,7.81,17.356,17.356,17.356C165.749,277.695,173.559,269.885,173.559,260.339"/>
	<path style="fill:#D4D0BA;" d="M347.119,269.017H199.593c-5.207,0-8.678-3.471-8.678-8.678s3.471-8.678,8.678-8.678h147.525
		c5.207,0,8.678,3.471,8.678,8.678S352.325,269.017,347.119,269.017"/>
	<path style="fill:#D4D0BA;" d="M173.559,338.441c0-9.546-7.81-17.356-17.356-17.356c-9.546,0-17.356,7.81-17.356,17.356
		s7.81,17.356,17.356,17.356C165.749,355.797,173.559,347.986,173.559,338.441"/>
	<path style="fill:#D4D0BA;" d="M347.119,347.119H199.593c-5.207,0-8.678-3.471-8.678-8.678s3.471-8.678,8.678-8.678h147.525
		c5.207,0,8.678,3.471,8.678,8.678S352.325,347.119,347.119,347.119"/>
	<path style="fill:#D4D0BA;" d="M173.559,416.542c0-9.546-7.81-17.356-17.356-17.356c-9.546,0-17.356,7.81-17.356,17.356
		c0,9.546,7.81,17.356,17.356,17.356C165.749,433.898,173.559,426.088,173.559,416.542"/>
	<path style="fill:#D4D0BA;" d="M347.119,425.22H199.593c-5.207,0-8.678-3.471-8.678-8.678c0-5.207,3.471-8.678,8.678-8.678h147.525
		c5.207,0,8.678,3.471,8.678,8.678C355.797,421.749,352.325,425.22,347.119,425.22"/>
</g>
</svg>